# xmcd
#
# Track frame offsets: 
#        150
#        14570
#        27257
#        36719
#        45403
#        58865
#        67291
#        81833
#        95429
#        108424
#        119916
#        133933
#        143835
#        159885
#        175663
#        196847
#        213288
#        225665
#        244002
#        254737
#        266142
#        278040
#        290935
#
# Disc length: 4016 seconds
#
# Revision: 0
# Processed by: cddbd v1.5.2PL0 Copyright (c) Steve Scherf et al.
# Submitted via: ExactAudioCopy v0.95b4
#
DISCID=690fae17
DTITLE=Martin Pyrker - Rent Party Echoes Vol3
DYEAR=2001
DGENRE=Blues
TTITLE0=Martin Pyrker - Indiana Avenue Stomp
TTITLE1=Martin Pyrker - Karina's Boogie Woogie
TTITLE2=Martin Pyrker - The Rocks
TTITLE3=Martin Pyrker - How Long Blues
TTITLE4=Martin Pyrker - Freddie's Got The Blues
TTITLE5=Martin Pyrker - La Salle Street Breakdown
TTITLE6=Martin Pyrker - State Street Special
TTITLE7=Martin Pyrker - George's Texas Stomp
TTITLE8=Martin Pyrker - Martin's Stomp
TTITLE9=Charlie Castner - Loafin' with Lux
TTITLE10=Ben Conroy - Bits and Pieces
TTITLE11=Ben Conroy - Jimmie's Stuff
TTITLE12=Ben Conroy - Move That Ting
TTITLE13=Charlie Booty - West Texas drag
TTITLE14=Charlie Booty - Suitcase Blues
TTITLE15=Charlie Booty - You Are My Sunshine
TTITLE16=Carl Sonny Leyland - Me and Mush Shuffle
TTITLE17=Carl Sonny Leyland - Texas Blues
TTITLE18=Carl Sonny Leyland - Back in the Alley
TTITLE19=Carl Sonny Leyland - 'Fore Day Blues
TTITLE20=Carl Sonny Leyland - Dallas-Fort Worth Breakdown
TTITLE21=Carl Sonny Leyland - Mecca Flat Blues
TTITLE22=Carl Sonny Leyland - Club Car Romp
EXTD=
EXTT0=
EXTT1=
EXTT2=
EXTT3=
EXTT4=
EXTT5=
EXTT6=
EXTT7=
EXTT8=
EXTT9=
EXTT10=
EXTT11=
EXTT12=
EXTT13=
EXTT14=
EXTT15=
EXTT16=
EXTT17=
EXTT18=
EXTT19=
EXTT20=
EXTT21=
EXTT22=
PLAYORDER=
